<svg xmlns="http://www.w3.org/2000/svg" version="1.1" xmlns:xlink="http://www.w3.org/1999/xlink" xmlns:svgjs="http://svgjs.com/svgjs" width="1440" height="560" preserveAspectRatio="none" viewBox="0 0 1440 560"><g mask="url(&quot;#SvgjsMask1001&quot;)" fill="none"><path d="M507.09 282.41a23.32 23.32 0 1 0-9.9 45.58z" stroke="rgba(0, 28, 230, 1)"></path><path d="M871.28 209.84 a20.41 20.41 0 1 0 40.82 0 a20.41 20.41 0 1 0 -40.82 0z" stroke="rgba(0, 28, 230, 1)"></path><path d="M911.59 557.38 a53.21 53.21 0 1 0 106.42 0 a53.21 53.21 0 1 0 -106.42 0z" fill="rgba(0, 28, 230, 1)"></path><path d="M446.48 284.15a6.01 6.01 0 1 0-1.72-11.9z" fill="rgba(0, 28, 230, 1)"></path><path d="M-22.52 58.28 a33.56 33.56 0 1 0 67.12 0 a33.56 33.56 0 1 0 -67.12 0z" fill="rgba(0, 28, 230, 1)"></path><path d="M120.57 29.71L125.56 29.71L125.56 71.94L120.57 71.94z" fill="rgba(0, 28, 230, 1)"></path><path d="M1347.68 229.25 a24.05 24.05 0 1 0 48.1 0 a24.05 24.05 0 1 0 -48.1 0z" stroke="rgba(0, 28, 230, 1)"></path><path d="M74.88 460.54L76.75 460.54L76.75 462.41L74.88 462.41z" fill="rgba(0, 28, 230, 1)"></path><path d="M554.9 419.69 a24.03 24.03 0 1 0 48.06 0 a24.03 24.03 0 1 0 -48.06 0z" fill="rgba(0, 28, 230, 1)"></path><path d="M1130.23 396.19 a34.79 34.79 0 1 0 69.58 0 a34.79 34.79 0 1 0 -69.58 0z" fill="rgba(0, 28, 230, 1)"></path><path d="M1157.74 258.87L1198.27 258.87L1198.27 299.4L1157.74 299.4z" fill="rgba(0, 28, 230, 1)"></path><path d="M789 85.96 a12.44 12.44 0 1 0 24.88 0 a12.44 12.44 0 1 0 -24.88 0z" fill="rgba(0, 28, 230, 1)"></path><path d="M921.31 27.24 a46.83 46.83 0 1 0 93.66 0 a46.83 46.83 0 1 0 -93.66 0z" stroke="rgba(0, 28, 230, 1)"></path><path d="M558.78 385.87L578.73 385.87L578.73 405.82L558.78 405.82z" fill="rgba(0, 28, 230, 1)"></path><path d="M92.79 29.34 a1.82 1.82 0 1 0 3.64 0 a1.82 1.82 0 1 0 -3.64 0z" fill="rgba(0, 28, 230, 1)"></path><path d="M407.61 102.96L416.18 102.96L416.18 111.53L407.61 111.53z" stroke="rgba(0, 28, 230, 1)"></path><path d="M386.77 92.02 a10.08 10.08 0 1 0 20.16 0 a10.08 10.08 0 1 0 -20.16 0z" stroke="rgba(0, 28, 230, 1)"></path><path d="M232.22 186.92 a15.12 15.12 0 1 0 30.24 0 a15.12 15.12 0 1 0 -30.24 0z" fill="rgba(0, 28, 230, 1)"></path><path d="M605.32 112.86L642.02 112.86L642.02 119.47L605.32 119.47z" stroke="rgba(0, 28, 230, 1)"></path><path d="M1314.9 262.77a11.82 11.82 0 1 0 22.7-6.6z" stroke="rgba(0, 28, 230, 1)"></path><path d="M594.71 107.47 a24.83 24.83 0 1 0 49.66 0 a24.83 24.83 0 1 0 -49.66 0z" fill="rgba(0, 28, 230, 1)"></path><path d="M81.39 256.12L105.71 256.12L105.71 260L81.39 260z" fill="rgba(0, 28, 230, 1)"></path><path d="M708.55 477.71 a12.34 12.34 0 1 0 24.68 0 a12.34 12.34 0 1 0 -24.68 0z" fill="rgba(0, 28, 230, 1)"></path><path d="M335.35 499.49L356 499.49L356 520.14L335.35 520.14z" fill="rgba(0, 28, 230, 1)"></path><path d="M1323.15 309.34L1327.75 309.34L1327.75 313.94L1323.15 313.94z" fill="rgba(0, 28, 230, 1)"></path><path d="M852.7 483.33L863.37 483.33L863.37 494L852.7 494z" fill="rgba(0, 28, 230, 1)"></path><path d="M612.65 429.09L626.22 429.09L626.22 434.42L612.65 434.42z" stroke="rgba(0, 28, 230, 1)"></path><path d="M1256.09 425.72L1283.1 425.72L1283.1 452.73L1256.09 452.73z" stroke="rgba(0, 28, 230, 1)"></path><path d="M618.33 109.68 a6.52 6.52 0 1 0 13.04 0 a6.52 6.52 0 1 0 -13.04 0z" fill="rgba(0, 28, 230, 1)"></path><path d="M1219.48 242.93L1235.52 242.93L1235.52 243.12L1219.48 243.12z" fill="rgba(0, 28, 230, 1)"></path><path d="M1397.3 494.55a42.2 42.2 0 1 0-84.37 1.9z" fill="rgba(0, 28, 230, 1)"></path><path d="M1290.84 317.99L1310.95 317.99L1310.95 332.68L1290.84 332.68z" fill="rgba(0, 28, 230, 1)"></path><path d="M200.77 548.04a35.38 35.38 0 1 0 50.96-49.08z" fill="rgba(0, 28, 230, 1)"></path></g><defs><mask id="SvgjsMask1001"><rect width="1440" height="560" fill="#ffffff"></rect></mask></defs></svg>