<svg width="32" height="32" viewBox="0 0 32 32" fill="none" xmlns="http://www.w3.org/2000/svg">
<path d="M29.3334 27.34C29.3334 28.0733 28.7387 28.6667 28.0067 28.6667L17.3267 28.6667C16.9749 28.6667 16.6374 28.5269 16.3886 28.2781C16.1398 28.0293 16 27.6918 16 27.34C16 26.9881 16.1398 26.6507 16.3886 26.4019C16.6374 26.1531 16.9749 26.0133 17.3267 26.0133L28.0067 26.0133C28.3586 26.0133 28.696 26.1531 28.9448 26.4019C29.1936 26.6507 29.3334 26.9881 29.3334 27.34Z" fill="black"/>
<path d="M29.3334 19.3333C29.3334 20.0666 28.7387 20.66 28.0067 20.66L3.99337 20.66C3.64152 20.66 3.30408 20.5202 3.05528 20.2714C2.80648 20.0226 2.66671 19.6852 2.66671 19.3333C2.66671 18.9815 2.80648 18.644 3.05528 18.3952C3.30408 18.1464 3.64152 18.0066 3.99337 18.0066L28.0067 18.0066C28.3586 18.0066 28.696 18.1464 28.9448 18.3952C29.1936 18.644 29.3334 18.9815 29.3334 19.3333Z" fill="black"/>
<path d="M28.0067 12.6533C28.3586 12.6533 28.696 12.5135 28.9448 12.2648C29.1936 12.016 29.3334 11.6785 29.3334 11.3267C29.3334 10.9748 29.1936 10.6374 28.9448 10.3886C28.696 10.1398 28.3586 9.99999 28.0067 9.99999L11.9934 9.99999C11.6415 9.99999 11.3041 10.1398 11.0553 10.3886C10.8065 10.6374 10.6667 10.9748 10.6667 11.3267C10.6667 11.6785 10.8065 12.016 11.0553 12.2648C11.3041 12.5136 11.6415 12.6533 11.9934 12.6533L28.0067 12.6533Z" fill="black"/>
</svg>
